<?xml version="1.0" encoding="utf-8"?>
<!-- Generator: Adobe Illustrator 21.1.0, SVG Export Plug-In . SVG Version: 6.00 Build 0)  -->
<svg version="1.1" id="Capa_1" xmlns="http://www.w3.org/2000/svg" xmlns:xlink="http://www.w3.org/1999/xlink" x="0px" y="0px"
	 viewBox="0 0 562.7 562.7" style="enable-background:new 0 0 562.7 562.7;" xml:space="preserve">
<style type="text/css">
	.st0{fill:#C31E24;}
</style>
<g>
	<path class="st0" d="M521.1,246.9l-6.9-3.9L296.9,119c9.8,33.2,22.1,75.7,37.8,130.4l8.8,30.8h-97.1l32.9,173.7L392,389.5
		l129.1-73.6C554.5,296.8,554.5,265.9,521.1,246.9z"/>
	<path class="st0" d="M279.1,231.8c-13.9-48.3-30.5-105.2-43.2-147.7l-49.2-28.1l-84.1-48C69.2-11,42.1,4.8,42.1,43.2v61v178.7
		v236.7c0,38.4,27.1,54.1,60.4,35.1l127.6-72.8l4.5-2.6l-46.9-247.5H279.1z"/>
</g>
</svg>
